<svg width="100" height="100" viewBox="0 0 100 100" fill="none" xmlns="http://www.w3.org/2000/svg">
<path d="M68.75 54.1667C63.75 54.1667 55.9583 55.5834 50 58.3334C44.0417 55.5417 36.25 54.1667 31.25 54.1667C22.2083 54.1667 4.16666 58.6667 4.16666 67.7084V79.1667H95.8333V67.7084C95.8333 58.6667 77.7917 54.1667 68.75 54.1667ZM52.0833 72.9167H10.4167V67.7084C10.4167 65.4584 21.0833 60.4167 31.25 60.4167C41.4167 60.4167 52.0833 65.4584 52.0833 67.7084V72.9167ZM89.5833 72.9167H58.3333V67.7084C58.3333 65.7917 57.5 64.125 56.1667 62.625C59.8333 61.375 64.3333 60.4167 68.75 60.4167C78.9167 60.4167 89.5833 65.4584 89.5833 67.7084V72.9167ZM31.25 50C39.2917 50 45.8333 43.4584 45.8333 35.4167C45.8333 27.375 39.2917 20.8334 31.25 20.8334C23.2083 20.8334 16.6667 27.375 16.6667 35.4167C16.6667 43.4584 23.2083 50 31.25 50ZM31.25 27.0834C35.8333 27.0834 39.5833 30.8334 39.5833 35.4167C39.5833 40 35.8333 43.75 31.25 43.75C26.6667 43.75 22.9167 40 22.9167 35.4167C22.9167 30.8334 26.6667 27.0834 31.25 27.0834ZM68.75 50C76.7917 50 83.3333 43.4584 83.3333 35.4167C83.3333 27.375 76.7917 20.8334 68.75 20.8334C60.7083 20.8334 54.1667 27.375 54.1667 35.4167C54.1667 43.4584 60.7083 50 68.75 50ZM68.75 27.0834C73.3333 27.0834 77.0833 30.8334 77.0833 35.4167C77.0833 40 73.3333 43.75 68.75 43.75C64.1667 43.75 60.4167 40 60.4167 35.4167C60.4167 30.8334 64.1667 27.0834 68.75 27.0834Z" fill="#3C6255"/>
</svg>
