<svg width="100" height="100" viewBox="0 0 100 100" fill="none" xmlns="http://www.w3.org/2000/svg">
<path d="M33.3333 45.8334L29.375 37.2917L20.8333 33.3334L29.375 29.375L33.3333 20.8334L37.2917 29.375L45.8333 33.3334L37.2917 37.2917L33.3333 45.8334ZM33.3333 87.5L29.375 78.9584L20.8333 75L29.375 71.0417L33.3333 62.5L37.2917 71.0417L45.8333 75L37.2917 78.9584L33.3333 87.5ZM20.8333 62.5L18.2292 56.7709L12.5 54.1667L18.2292 51.5625L20.8333 45.8334L23.4375 51.5625L29.1667 54.1667L23.4375 56.7709L20.8333 62.5ZM72.7083 88.5417C65.8333 84.5139 60.3306 79.0625 56.2 72.1875C52.0667 65.3125 50 57.9167 50 50C50 43.4723 51.3028 37.3612 53.9083 31.6667C56.5111 25.9723 60 20.9723 64.375 16.6667H54.1667C52.9861 16.6667 51.9972 16.2667 51.2 15.4667C50.4 14.6695 50 13.6806 50 12.5C50 11.3195 50.4 10.3292 51.2 9.52921C51.9972 8.73198 52.9861 8.33337 54.1667 8.33337H75C76.1806 8.33337 77.1694 8.73198 77.9667 9.52921C78.7667 10.3292 79.1667 11.3195 79.1667 12.5V33.3334C79.1667 34.5139 78.7667 35.5028 77.9667 36.3C77.1694 37.1 76.1806 37.5 75 37.5C73.8194 37.5 72.8306 37.1 72.0333 36.3C71.2333 35.5028 70.8333 34.5139 70.8333 33.3334V21.9792C67.0833 25.6598 64.0625 29.9306 61.7708 34.7917C59.4792 39.6528 58.3333 44.7223 58.3333 50C58.3333 56.6667 60.1389 62.8125 63.75 68.4375C67.3611 74.0625 71.9792 78.507 77.6042 81.7709C78.0208 82.0487 78.3861 82.4834 78.7 83.075C79.0111 83.6639 79.1667 84.3056 79.1667 85C79.0278 86.6667 78.3167 87.9167 77.0333 88.75C75.7472 89.5834 74.3056 89.5139 72.7083 88.5417Z" fill="#3C6255"/>
</svg>
