<svg width="100" height="100" viewBox="0 0 100 100" fill="none" xmlns="http://www.w3.org/2000/svg">
<g clip-path="url(#clip0_46_27482)">
<path d="M56.25 12.5C65.6431 12.5 74.6515 16.2314 81.2934 22.8733C87.9353 29.5152 91.6667 38.5236 91.6667 47.9167C91.6667 57.3097 87.9353 66.3181 81.2934 72.96C74.6515 79.6019 65.6431 83.3333 56.25 83.3333H54.1667V87.4583C54.1667 88.0113 54.0577 88.5589 53.8459 89.0698C53.6342 89.5806 53.3238 90.0447 52.9326 90.4355C52.5414 90.8264 52.077 91.1363 51.5659 91.3475C51.0549 91.5588 50.5072 91.6672 49.9542 91.6667C39.7042 91.6583 29.3208 88.2375 21.4417 81.2333C13.4917 74.1583 8.34167 63.6458 8.33334 50.0375V47.9167C8.33334 38.5236 12.0647 29.5152 18.7066 22.8733C25.3486 16.2314 34.3569 12.5 43.75 12.5H56.25ZM56.25 20.8333H43.75C36.5671 20.8333 29.6783 23.6867 24.5992 28.7659C19.5201 33.845 16.6667 40.7337 16.6667 47.9167L16.6708 50.6875C16.8375 61.6958 21.0083 69.6958 26.9833 75.0042C32.1417 79.5958 38.8208 82.3333 45.8333 83.1042V79.2083C45.8333 76.8833 47.7167 75 50.0417 75H56.25C63.433 75 70.3217 72.1466 75.4008 67.0675C80.4799 61.9884 83.3333 55.0996 83.3333 47.9167C83.3333 40.7337 80.4799 33.845 75.4008 28.7659C70.3217 23.6867 63.433 20.8333 56.25 20.8333ZM35.4167 41.6667C37.0743 41.6667 38.664 42.3251 39.8361 43.4972C41.0082 44.6693 41.6667 46.2591 41.6667 47.9167C41.6667 49.5743 41.0082 51.164 39.8361 52.3361C38.664 53.5082 37.0743 54.1667 35.4167 54.1667C33.7591 54.1667 32.1694 53.5082 30.9973 52.3361C29.8251 51.164 29.1667 49.5743 29.1667 47.9167C29.1667 46.2591 29.8251 44.6693 30.9973 43.4972C32.1694 42.3251 33.7591 41.6667 35.4167 41.6667ZM64.5833 41.6667C66.2409 41.6667 67.8307 42.3251 69.0028 43.4972C70.1749 44.6693 70.8333 46.2591 70.8333 47.9167C70.8333 49.5743 70.1749 51.164 69.0028 52.3361C67.8307 53.5082 66.2409 54.1667 64.5833 54.1667C62.9257 54.1667 61.336 53.5082 60.1639 52.3361C58.9918 51.164 58.3333 49.5743 58.3333 47.9167C58.3333 46.2591 58.9918 44.6693 60.1639 43.4972C61.336 42.3251 62.9257 41.6667 64.5833 41.6667Z" fill="#3C6255"/>
</g>
<defs>
<clipPath id="clip0_46_27482">
<rect width="100" height="100" fill="white"/>
</clipPath>
</defs>
</svg>
